<?xml version="1.0" standalone="no"?><!DOCTYPE svg PUBLIC "-//W3C//DTD SVG 1.1//EN" "http://www.w3.org/Graphics/SVG/1.1/DTD/svg11.dtd"><svg t="1626667977859" class="icon" viewBox="0 0 1024 1024" version="1.1" xmlns="http://www.w3.org/2000/svg" p-id="1998" xmlns:xlink="http://www.w3.org/1999/xlink" width="128" height="128"><defs><style type="text/css"></style></defs><path d="M966.28303 0H57.66703A57.667 57.667 0 0 0 0.00003 57.73v908.615A57.667 57.667 0 0 0 57.66703 1024h908.616a57.667 57.667 0 0 0 57.668-57.655V57.729A57.667 57.667 0 0 0 966.28303 0zM216.64403 752.932q78.514-53.769 156.436-128.027l39.251 30.838q-77.268 69.41-162.455 134.023-14.482-17.504-33.232-36.834z m333.953-25.965q0 68.83-72.47 68.843-29.604 0-77.897-1.234-3.01-22.351-7.857-49.526 50.735 5.44 77.91 5.44 33.206 0 33.218-32.614V593.499q-73.382 3.923-149.17 8.462a551.818 551.818 0 0 0-68.24 7.845l-19.933-51.931a317.275 317.275 0 0 0 75.492-23.56q92.403-45.296 171.46-91.183-105.072 8.141-176.394 14.494-31.393 3.01-47.713 6.637l-19.194-50.723a227.684 227.684 0 0 0 54.35-21.143 1300.976 1300.976 0 0 0 151.884-99.915q-103.617 6.328-209.86 11.101a409.963 409.963 0 0 0-10.868-42.273q288.054-10.818 511.482-33.182l9.067 42.89q-131.05 10.855-266.023 19.626l24.449 17.207q-94.81 63.416-175.16 106.899 135.255-7.55 224.045-14.494 60.442-38.647 111.72-77.91l39.263 32.072q-151.6 108.094-352.085 202.298 120.244-4.342 291.445-12.73-30.197-27.791-60.69-54.361l32.072-30.838q77.28 62.219 158.225 136.49-19.922 19.341-36.846 36.833-25.114-24.72-50.784-48.897-80.611 3.33-164.873 7.845z m221.036 57.975q-84.558-70.052-162.456-128.027l30.838-32.615q76.097 50.735 167.279 121.38z" p-id="1999"></path></svg>